# xmcd CD database file
#
# Track frame offsets:
#	150
#	13420
#	27145
#	45252
#	54467
#	66097
#	79612
#	91282
#	105487
#	119417
#	135057
#	146772
#	162125
#	172557
#	182592
#	194892
#	207310
#	220390
#	239942
#	251935
#	265647
#	278807
#	294555
#	305120
#	318212
#
# Disc length: 4425 seconds
#
# Revision: 0
# Processed by: cddbd v1.5.1PL2 Copyright (c) Steve Scherf et al.
# Submitted via: CDex 1.51
#
DISCID=6c114719
DTITLE=Various Artist - El Gran Tesoro De La Musica Cubana Vol. 2
DYEAR=2004
DGENRE=Salsa
TTITLE0=Abelardo Barroso y Orquesta Sensacion/En Guantanamo
TTITLE1=Grupo Afrocubano de Alberto Zayas/El Vive Bien
TTITLE2=El Jilguero de Cienfuegos y Conjunto Los Sonoros/No Volvere A Enamorarme
TTITLE3=Ajo y su Organo Oriental/Los Carnavales De Oriente
TTITLE4=Caridad Cuervo y Conjunto Severino Ramos/Sabor A Guaguanco
TTITLE5=Rolando Laserie y Orquesta Cosmopolita/Lo Dice Mi Abuelito
TTITLE6=Jose Tejedor y Conjunto Musicuba/En Las Tinieblas
TTITLE7=Blanca Rosa Gil y Orquesta Cosmopolita/Amor y Olvido
TTITLE8=Miguelito Valdes y Orquesta Hermanos Castro/Loco De Amor-Ya No Alumbra
TTITLE9=Miguel D'Gonzalo y Orquesta de Humberto Suarez/Imagenes
TTITLE10=Bebo Valdes y ritrmo/Sabor
TTITLE11=Frank Dominguez/Tu Me Acostumbraste
TTITLE12=Ernesto Lecuona/No Me Niegues El Amor
TTITLE13=Amado Borcela "guapacha"/Una Cierta Sonrisa
TTITLE14=Nino Rivera, Cachao, Barreto, Tata Guines/Oye Mi Tres Montuno
TTITLE15=Bola de Nieve y Orquesta de Armando Orefiche/Vamo' Jose
TTITLE16=Pedro Justiz "Peruchin" y su Grupo/Pa'Gozar
TTITLE17=Merceditas Valdes y Orquesta I.N.C./Ogguere
TTITLE18=Rolo Martinez y Orquesta de Ernesto Duarte/A La Quimbamba
TTITLE19=Juana Bacallao y Orquesta de Obdulio Morales/Juana Bacallao
TTITLE20=Tito Gomez y Orquesta Riverside/Yayabo
TTITLE21=Chepin y su Orquesta Oriental/Bodas de Oro
TTITLE22=Hermanos Bravo/El Jamaiquino
TTITLE23=Chico O'Farril y su Orquesta All Star/Me Lo Dijo Adela
TTITLE24=Benny More y su Banda Gigante/Como Arrullo de Palma
EXTD=YEAR: 2004
EXTT0=
EXTT1=
EXTT2=
EXTT3=
EXTT4=
EXTT5=
EXTT6=
EXTT7=
EXTT8=
EXTT9=
EXTT10=
EXTT11=
EXTT12=
EXTT13=
EXTT14=
EXTT15=
EXTT16=
EXTT17=
EXTT18=
EXTT19=
EXTT20=
EXTT21=
EXTT22=
EXTT23=
EXTT24=
PLAYORDER=
